<?xml version="1.0" standalone="no"?>
<!DOCTYPE svg PUBLIC "-//W3C//DTD SVG 20010904//EN"
 "http://www.w3.org/TR/2001/REC-SVG-20010904/DTD/svg10.dtd">
<svg version="1.0" xmlns="http://www.w3.org/2000/svg"
 width="2048.000000pt" height="2048.000000pt" viewBox="0 0 2048.000000 2048.000000"
 preserveAspectRatio="xMidYMid meet">
<metadata>
Created by potrace 1.11, written by Peter Selinger 2001-2013
</metadata>
<g transform="translate(0.000000,2048.000000) scale(0.100000,-0.100000)"
fill="#3f3d44" stroke="none">
<path d="M7030 20300 c-124 -10 -250 -30 -250 -41 0 -13 55 -11 223 8 224 25
340 7 637 -98 158 -56 349 -149 579 -282 165 -95 202 -121 250 -174 54 -61 80
-76 82 -50 6 66 -51 109 -382 291 -230 126 -381 194 -581 260 -243 81 -369
100 -558 86z"/>
<path d="M6070 20213 c-183 -17 -523 -104 -542 -137 -5 -8 -37 -16 -80 -20
-277 -26 -704 -101 -836 -147 -116 -41 -332 -152 -462 -237 -58 -38 -159 -102
-225 -142 -104 -64 -139 -93 -265 -220 -80 -81 -206 -197 -280 -257 -74 -60
-142 -118 -150 -128 -8 -10 -52 -49 -98 -88 -56 -46 -80 -73 -74 -79 17 -17
123 39 182 96 30 29 107 95 170 146 63 51 185 163 270 250 85 86 180 173 210
192 30 19 136 87 235 150 181 116 379 219 510 264 85 30 490 106 710 133 336
41 647 -3 1045 -148 338 -124 401 -151 525 -224 110 -64 248 -150 266 -164 8
-7 22 -13 30 -13 8 0 61 -55 117 -121 105 -122 207 -204 238 -192 27 10 10 37
-51 79 -33 23 -107 95 -164 159 -80 90 -123 130 -190 173 -170 110 -365 214
-472 251 -46 16 -127 47 -179 69 -248 102 -586 187 -795 198 -107 7 -115 8
-91 21 45 24 287 81 394 93 140 16 477 8 602 -15 182 -33 282 -64 408 -128 98
-49 126 -68 138 -92 22 -46 139 -170 239 -253 118 -99 220 -147 362 -174 59
-11 128 -27 151 -35 86 -30 194 -140 337 -340 58 -82 85 -102 85 -62 0 28
-167 244 -261 339 -88 88 -138 116 -224 125 -166 17 -271 54 -390 139 -68 49
-282 252 -274 261 3 3 50 -15 105 -39 54 -24 142 -62 195 -84 119 -51 192 -93
294 -172 96 -74 149 -103 176 -95 36 12 23 44 -27 65 -25 11 -94 53 -152 94
-128 88 -151 100 -318 166 -71 28 -219 96 -330 150 -111 55 -234 108 -275 120
-209 58 -585 93 -789 73z"/>
<path d="M6607 20053 c-19 -19 2 -38 86 -79 104 -50 207 -71 207 -41 0 20 -8
25 -76 43 -31 8 -84 30 -119 49 -61 35 -85 41 -98 28z"/>
<path d="M7778 19963 c-32 -8 -19 -23 20 -23 69 0 177 -29 260 -71 70 -34 104
-60 216 -170 121 -117 166 -149 166 -118 0 32 -235 244 -335 302 -95 55 -267
98 -327 80z"/>
<path d="M5570 19818 c-132 -28 -411 -99 -448 -113 -52 -21 -55 -38 -4 -30 20
3 -12 -8 -73 -24 -253 -65 -398 -122 -473 -186 -58 -49 -23 -44 91 11 155 74
463 153 657 169 88 7 244 -14 520 -70 108 -22 150 -21 150 3 -1 26 -32 36
-191 62 -96 16 -227 38 -291 49 -99 17 -130 19 -199 10 -45 -5 -83 -8 -85 -6
-2 2 76 21 174 42 228 49 305 54 446 25 99 -20 110 -20 124 -6 15 14 15 18 1
31 -34 34 -293 56 -399 33z"/>
<path d="M7937 19773 c-13 -13 -6 -20 71 -76 92 -65 209 -186 277 -286 49 -72
75 -89 75 -48 0 53 -222 298 -339 375 -65 43 -73 47 -84 35z"/>
<path d="M8873 19699 c-27 -27 -9 -49 42 -49 26 0 118 -59 187 -119 29 -26 61
-70 87 -120 45 -87 47 -81 -26 -96 -38 -7 -58 -28 -49 -51 5 -13 14 -15 39
-10 104 21 114 20 131 -12 46 -89 96 -376 96 -551 l0 -45 -37 37 c-46 48 -86
69 -123 65 -22 -2 -38 6 -65 32 -19 18 -35 37 -35 41 0 4 18 10 41 14 63 11
42 29 -42 36 -59 4 -86 12 -133 39 -76 43 -155 49 -351 26 -201 -24 -215 -26
-215 -41 0 -21 15 -22 164 -3 182 22 297 22 355 0 51 -19 62 -37 30 -45 -18
-5 -20 -9 -11 -20 9 -10 26 -13 60 -9 l47 4 105 -109 c136 -139 164 -177 157
-205 -16 -71 -57 -276 -57 -290 0 -30 30 -8 37 26 l7 31 7 -34 c4 -19 10 -73
14 -121 l7 -87 -57 -142 c-33 -85 -63 -180 -74 -237 -10 -52 -22 -98 -26 -102
-12 -11 3 251 20 353 18 110 18 105 1 105 -28 0 -56 -256 -56 -507 0 -187 6
-239 59 -493 17 -80 39 -217 51 -305 11 -88 27 -185 35 -215 8 -30 13 -56 11
-58 -6 -5 -70 111 -101 183 -15 33 -51 112 -80 175 -64 139 -95 230 -95 281 0
50 -8 69 -31 69 -56 0 -26 -147 71 -349 48 -100 68 -153 64 -168 -10 -35 44
-378 77 -493 17 -58 54 -157 84 -220 29 -63 56 -134 60 -157 8 -53 -16 -187
-57 -307 -16 -50 -33 -120 -35 -156 -3 -36 -11 -71 -17 -79 -17 -22 -25 42
-26 229 -1 191 -10 296 -45 528 -29 188 -36 212 -65 212 -27 0 -26 -28 5 -165
42 -187 55 -310 65 -615 7 -246 13 -319 34 -439 14 -79 24 -146 22 -148 -2 -2
-19 23 -38 55 -26 43 -37 76 -42 123 -11 99 -73 413 -96 487 -11 37 -28 101
-38 142 -14 64 -20 75 -39 78 -31 5 -30 -24 2 -127 28 -87 96 -382 121 -520
10 -57 17 -179 20 -361 5 -266 9 -306 49 -496 3 -16 -16 17 -43 72 -27 56
-100 177 -161 269 -61 92 -111 171 -111 176 0 5 -9 9 -20 9 -47 0 -17 -61 164
-325 39 -58 81 -140 126 -248 75 -182 147 -330 179 -367 l21 -25 -14 40 c-7
22 -36 96 -64 165 -66 166 -72 192 -20 95 47 -89 88 -149 95 -142 2 3 -21 66
-51 140 -81 199 -98 286 -102 547 l-4 215 21 -45 c12 -25 30 -69 40 -99 10
-30 24 -60 30 -67 15 -19 45 -18 53 2 8 22 -19 226 -49 367 -14 64 -25 126
-25 136 0 10 30 54 66 97 67 81 137 211 169 314 12 40 18 102 20 230 2 96 9
200 15 230 23 114 23 277 1 409 -20 125 -38 168 -62 144 -9 -9 -6 -47 11 -149
25 -153 24 -278 -5 -434 -11 -62 -14 -114 -9 -190 4 -62 2 -129 -5 -163 -18
-101 -120 -331 -138 -314 -3 3 13 61 35 129 92 281 93 345 9 507 -58 111 -96
223 -121 356 -16 83 -36 216 -36 235 0 6 24 -24 53 -67 29 -43 66 -84 82 -93
17 -8 33 -19 37 -25 12 -16 9 9 -11 103 -11 48 -33 184 -50 303 -17 119 -46
287 -65 374 -33 151 -36 175 -17 175 10 0 43 -86 76 -203 49 -172 135 -328
316 -574 56 -76 111 -155 123 -175 25 -45 62 -54 52 -12 -4 14 -43 88 -87 164
-44 76 -100 186 -125 244 -59 141 -79 294 -71 546 9 244 -29 665 -80 895 -38
173 -52 295 -34 295 6 0 8 6 5 13 -2 7 7 43 21 80 29 78 30 107 10 316 -22
228 -61 372 -124 465 -16 22 -43 69 -60 104 -41 81 -83 126 -187 202 -91 66
-155 87 -181 59z m558 -1939 c17 -172 21 -282 20 -465 -1 -132 3 -289 8 -349
6 -60 9 -112 6 -114 -9 -9 -102 201 -119 268 -10 36 -32 103 -51 150 -44 110
-59 201 -52 309 7 109 26 177 87 315 27 61 52 125 56 141 l8 30 7 -30 c4 -16
18 -131 30 -255z"/>
<path d="M7340 19629 c0 -15 32 -59 126 -174 101 -123 141 -161 271 -259 57
-42 132 -105 169 -141 39 -38 71 -62 80 -58 17 6 18 33 1 53 -15 19 -166 137
-277 217 -90 64 -206 180 -304 301 -60 74 -66 80 -66 61z"/>
<path d="M6540 19616 c-7 -9 -8 -21 -3 -29 22 -37 233 -277 244 -277 19 0 8
40 -23 83 -134 185 -179 237 -203 237 -1 0 -8 -7 -15 -14z"/>
<path d="M4378 19610 c-9 -6 -39 -41 -68 -80 -97 -131 -234 -234 -500 -375
-162 -86 -350 -207 -394 -254 -17 -17 -25 -31 -19 -31 6 0 70 36 142 80 72 43
206 120 298 171 251 136 353 207 467 323 120 123 133 141 116 161 -14 17 -19
18 -42 5z"/>
<path d="M6030 19529 c-46 -11 -92 -26 -100 -34 -9 -8 -34 -15 -56 -15 -61 0
-103 -16 -155 -60 -47 -39 -48 -40 -97 -30 -106 20 -399 32 -486 21 -165 -22
-505 -91 -577 -117 -150 -54 -431 -191 -729 -354 -197 -108 -279 -137 -620
-214 l-105 -24 58 -1 c62 -1 225 21 324 44 103 24 215 75 503 227 276 146 495
249 607 287 64 22 412 90 572 112 81 11 116 11 264 -4 94 -9 175 -21 180 -26
5 -5 -7 -29 -30 -58 -36 -46 -76 -119 -103 -187 l-11 -28 -388 3 -388 4 -94
-47 c-99 -50 -189 -121 -215 -169 -8 -16 -12 -29 -9 -29 3 0 29 19 58 43 73
60 167 115 235 139 65 23 71 23 495 13 l307 -7 0 -28 c0 -15 -7 -65 -16 -110
-14 -75 -14 -84 0 -99 28 -27 44 5 61 124 13 89 21 113 38 127 19 15 20 19 8
42 -12 22 -12 31 3 71 25 64 95 154 168 214 68 55 107 71 179 71 28 0 51 6 59
15 35 43 212 61 309 31 30 -9 72 -16 94 -16 34 0 45 -7 100 -62 34 -35 94 -91
134 -126 40 -34 87 -83 104 -107 18 -25 36 -45 41 -45 16 0 8 35 -17 75 -13
22 -25 43 -25 47 0 4 57 -27 126 -69 88 -53 148 -98 199 -148 93 -93 131 -115
319 -180 86 -30 191 -70 232 -90 48 -22 85 -33 98 -29 13 3 59 -4 103 -15 98
-25 114 -26 107 -6 -5 12 0 14 22 10 16 -3 74 -12 129 -20 55 -9 183 -34 285
-55 211 -45 285 -53 285 -30 0 17 17 13 -320 80 -403 80 -434 84 -456 64 -17
-15 -25 -14 -121 11 -57 15 -132 39 -168 55 -36 15 -114 44 -174 64 -166 56
-210 81 -306 176 -71 70 -114 101 -241 175 -85 49 -167 91 -184 94 -36 5 -103
59 -145 118 -38 53 -56 63 -144 79 -126 25 -232 25 -326 3z"/>
<path d="M6937 19484 c-18 -18 -1 -36 71 -73 98 -52 177 -123 342 -311 73 -83
135 -148 137 -146 12 12 -94 157 -211 289 -129 148 -306 273 -339 241z"/>
<path d="M8958 19416 c-123 -50 -225 -105 -253 -136 -11 -13 -46 -42 -77 -67
-56 -42 -77 -83 -43 -83 8 0 57 31 109 69 112 81 264 165 356 196 50 17 66 27
68 43 5 34 -38 28 -160 -22z"/>
<path d="M6096 19279 c-91 -13 -218 -112 -270 -210 -16 -30 -40 -66 -54 -81
-23 -26 -25 -32 -18 -99 8 -92 34 -149 95 -214 27 -28 61 -75 75 -103 30 -60
45 -71 62 -48 19 27 3 60 -81 165 -99 124 -112 169 -76 273 29 83 61 128 141
192 80 65 119 80 233 91 65 6 78 10 75 23 -4 20 -88 25 -182 11z"/>
<path d="M6312 19227 c-13 -16 0 -30 84 -90 28 -20 70 -63 93 -97 39 -56 58
-70 74 -53 8 8 -46 108 -77 142 -21 23 -124 97 -149 107 -8 3 -19 -1 -25 -9z"/>
<path d="M3716 18758 c-90 -101 -142 -190 -181 -310 -21 -62 -49 -137 -62
-166 -49 -104 -215 -306 -537 -649 -167 -180 -195 -213 -179 -213 16 0 286
265 426 417 252 275 319 374 387 568 61 173 75 199 157 287 73 77 87 109 52
116 -10 2 -36 -19 -63 -50z"/>
<path d="M7007 18787 c-8 -20 11 -35 54 -43 62 -11 176 -73 234 -126 32 -29
53 -54 48 -55 -17 -6 -82 27 -92 46 -16 30 -283 104 -311 86 -6 -3 -10 -15
-10 -25 0 -21 8 -24 95 -36 l50 -7 -37 -7 c-20 -4 -43 -11 -50 -17 -7 -6 -35
-14 -63 -17 -27 -4 -79 -16 -114 -27 -35 -10 -76 -19 -92 -19 -23 0 -49 -20
-134 -104 -96 -95 -135 -150 -135 -191 0 -9 -10 -29 -21 -44 -12 -16 -18 -34
-15 -40 17 -27 49 -6 132 91 125 143 158 175 213 203 27 13 62 36 79 50 38 32
103 43 272 46 120 2 129 0 224 -33 71 -25 116 -48 157 -80 31 -26 65 -49 76
-52 27 -9 52 -56 77 -148 12 -45 29 -86 38 -91 25 -16 48 -1 48 31 0 42 -97
227 -162 308 -72 91 -81 98 -119 90 -28 -5 -38 1 -106 64 -51 47 -102 83 -158
111 -93 46 -168 61 -178 36z"/>
<path d="M4872 18735 c-285 -58 -350 -75 -632 -166 -357 -114 -489 -202 -677
-450 -56 -74 -132 -170 -170 -215 -37 -45 -102 -121 -143 -170 -41 -49 -127
-142 -192 -207 -116 -116 -134 -147 -85 -147 26 0 197 172 317 319 47 57 122
149 168 205 46 55 114 144 151 196 164 228 326 332 701 449 270 84 349 103
630 151 233 40 281 54 266 79 -12 18 -58 12 -334 -44z"/>
<path d="M5497 18776 c-3 -8 -11 -51 -17 -95 -12 -78 -11 -85 15 -169 53 -170
77 -198 183 -221 74 -15 111 -14 119 5 9 25 -17 41 -86 53 -35 6 -74 17 -86
25 -13 9 -36 52 -60 113 -34 88 -38 108 -39 197 -1 64 -5 101 -12 103 -6 2
-14 -3 -17 -11z"/>
<path d="M8393 18724 c-8 -21 11 -32 67 -40 273 -37 452 -80 510 -122 14 -10
41 -42 60 -70 37 -56 70 -70 70 -29 0 26 -40 86 -88 130 -47 44 -148 75 -371
113 -235 39 -240 39 -248 18z"/>
<path d="M5005 18671 c-91 -9 -160 -42 -265 -125 -106 -85 -173 -119 -490
-246 -286 -115 -311 -126 -395 -183 -111 -75 -301 -274 -281 -294 3 -4 55 41
114 98 182 179 240 212 631 364 276 106 323 129 436 215 165 124 210 136 480
127 151 -5 184 -4 189 8 12 32 -23 39 -188 41 -88 1 -192 -1 -231 -5z"/>
<path d="M9085 18353 c-18 -86 -27 -101 -94 -166 -38 -37 -73 -67 -79 -67 -5
0 -23 31 -40 70 l-31 70 27 12 c47 23 34 42 -33 50 -51 5 -62 4 -75 -12 -8
-10 -27 -22 -42 -25 -37 -9 -65 -42 -50 -57 10 -10 24 -9 62 5 28 10 55 15 61
11 20 -12 49 -96 49 -144 0 -28 -9 -68 -22 -96 l-22 -49 -9 45 c-12 67 -28 91
-85 134 -29 21 -52 47 -52 57 0 11 -10 20 -30 24 -16 4 -30 11 -30 17 0 7 -24
9 -67 6 -94 -7 -203 -63 -203 -104 0 -21 32 -17 81 10 24 13 64 30 88 36 39
10 45 10 54 -5 5 -9 28 -25 51 -35 66 -28 114 -75 126 -123 6 -23 20 -61 32
-85 17 -35 19 -47 10 -68 -7 -13 -15 -49 -18 -79 -7 -60 -11 -65 -69 -84 -53
-17 -123 -86 -134 -131 -18 -70 -23 -151 -11 -166 19 -22 39 -17 51 12 14 38
21 25 9 -17 -12 -42 -13 -206 -1 -213 5 -3 7 -61 4 -129 -5 -110 -3 -130 16
-182 12 -31 20 -59 18 -61 -2 -2 -28 6 -56 18 -43 17 -57 19 -72 10 -15 -10
-26 -8 -56 8 -53 28 -77 26 -231 -26 -171 -58 -255 -99 -250 -122 5 -26 41
-26 95 1 54 28 295 107 325 107 10 0 49 -16 87 -35 60 -30 71 -32 81 -20 19
23 27 19 56 -25 17 -25 34 -40 48 -40 15 0 35 -20 65 -65 42 -62 45 -70 49
-148 4 -77 3 -83 -18 -92 -14 -6 -30 -30 -42 -60 -19 -50 -58 -95 -82 -95 -8
0 -19 -6 -25 -14 -7 -8 -38 -18 -69 -21 -85 -9 -99 -13 -106 -32 -4 -9 -1 -23
7 -30 15 -15 109 -3 162 21 17 7 49 22 73 31 27 12 50 31 65 54 l22 36 3 -60
c2 -53 -2 -71 -39 -150 -48 -102 -127 -195 -166 -195 -15 0 -27 -8 -32 -23 -8
-20 -17 -24 -57 -25 -58 0 -119 28 -186 87 -49 43 -72 51 -82 26 -7 -19 60
-95 111 -126 19 -12 60 -30 91 -40 32 -9 56 -22 54 -28 -10 -44 -191 -271
-215 -271 -16 0 0 67 24 99 12 16 19 36 16 44 -3 9 3 32 14 53 23 46 25 90 4
98 -15 5 -33 -15 -56 -66 -17 -39 -39 -43 -68 -14 -22 23 -23 28 -12 50 15 28
9 56 -12 56 -8 0 -31 -14 -52 -30 -21 -17 -45 -28 -53 -25 -7 3 -16 5 -18 5
-3 0 -2 22 2 50 5 38 3 51 -8 55 -21 8 -79 -20 -112 -54 -17 -17 -33 -31 -37
-31 -5 0 -6 29 -2 65 5 56 4 65 -12 71 -11 5 -22 1 -30 -9 -7 -10 -20 -17 -30
-17 -9 0 -30 -11 -47 -25 -37 -31 -52 -32 -45 -2 3 12 3 47 -1 77 -5 42 -11
56 -25 58 -12 3 -22 -5 -29 -25 -9 -24 -16 -28 -38 -25 -22 3 -31 -2 -45 -26
-19 -31 -63 -62 -88 -62 -9 0 -21 16 -28 38 -6 20 -16 42 -21 48 -5 8 -3 14 7
18 13 5 16 20 14 83 -1 43 -4 85 -6 93 -7 24 -84 77 -130 89 -23 6 -61 20 -85
31 -34 15 -66 20 -150 20 -146 0 -202 -13 -233 -54 -14 -18 -25 -41 -25 -50 0
-10 -5 -26 -10 -37 -14 -26 2 -140 76 -529 55 -285 142 -505 217 -547 36 -20
44 -15 55 30 12 45 25 57 104 88 46 18 53 18 74 4 13 -8 32 -15 44 -15 11 0
20 -4 20 -10 0 -5 -5 -10 -10 -10 -6 0 -21 -24 -35 -52 -13 -29 -40 -74 -59
-100 -19 -26 -36 -53 -38 -59 -8 -23 -57 1 -114 56 -57 56 -80 66 -90 41 -10
-25 25 -75 83 -118 54 -41 59 -43 125 -42 66 1 70 2 108 39 22 21 43 36 46 32
4 -3 1 -34 -5 -68 -14 -67 -5 -93 24 -69 8 7 15 18 15 24 0 12 50 55 88 75
l24 13 -4 -59 c-2 -46 0 -58 12 -58 8 0 21 14 29 30 8 17 28 43 45 58 36 33
45 20 26 -39 -9 -25 -9 -39 -2 -46 13 -13 26 -7 116 56 26 18 26 18 51 -8 21
-23 28 -25 45 -16 20 11 21 18 4 65 -2 6 15 39 38 75 l42 65 8 -57 c8 -53 7
-61 -26 -127 -26 -51 -47 -78 -79 -100 -24 -16 -49 -36 -56 -44 -10 -13 -37
-15 -159 -12 -132 3 -156 7 -235 34 -48 16 -141 62 -207 100 -118 71 -150 79
-150 40 0 -24 46 -54 201 -132 132 -66 239 -96 359 -101 72 -2 86 -6 88 -21 5
-23 -11 -32 -73 -41 -66 -9 -95 -20 -95 -38 0 -31 24 -36 98 -22 75 14 102 28
102 53 0 7 6 16 14 19 8 3 27 23 42 45 14 21 31 39 36 39 18 0 136 95 158 126
12 18 33 65 46 104 21 58 24 82 19 128 -9 80 -14 92 -36 92 -25 0 -24 14 7 91
25 60 94 324 94 360 0 9 -7 22 -15 29 -24 20 -41 -4 -48 -68 -17 -159 -104
-388 -183 -484 -39 -48 -40 -48 -99 -48 -92 0 -194 26 -243 60 -49 34 -67 37
-81 13 -10 -17 -10 -16 -10 2 0 11 6 31 14 45 20 35 18 67 -5 90 -17 17 -33
20 -112 20 l-93 0 -26 43 c-55 88 -61 104 -48 145 19 65 4 197 -50 432 -23
102 -29 115 -49 118 -34 5 -36 -19 -9 -105 14 -43 28 -105 32 -138 4 -33 13
-98 21 -144 19 -115 18 -136 -5 -91 -22 41 -95 284 -106 350 -4 25 -16 89 -26
143 -10 54 -19 116 -19 137 0 41 -20 59 -40 35 -15 -18 -10 -63 20 -215 47
-242 132 -513 207 -665 2 -5 -9 6 -26 25 -70 79 -159 300 -200 495 -31 151
-52 369 -38 392 10 16 168 36 217 28 35 -6 40 -10 35 -26 -8 -24 9 -46 49 -64
56 -25 86 -62 86 -104 0 -26 36 -37 58 -18 9 8 27 18 40 21 19 6 22 4 22 -19
0 -14 5 -35 11 -46 8 -15 7 -24 -3 -36 -20 -24 -16 -144 5 -177 28 -42 54 -33
126 41 36 37 76 81 89 97 24 32 24 30 26 -44 l1 -45 55 -2 c34 -1 63 4 78 13
21 14 22 13 22 -18 0 -24 8 -41 29 -61 37 -34 48 -34 87 4 34 33 54 32 54 -4
0 -44 13 -51 70 -40 44 9 52 8 57 -6 11 -30 46 -61 70 -61 23 0 23 -1 17 -83
-7 -92 10 -147 45 -147 19 0 137 119 170 170 8 14 27 41 42 60 15 19 30 44 33
56 4 12 22 35 41 53 19 17 35 38 35 45 0 7 13 16 30 19 18 4 35 17 44 34 8 15
31 44 51 63 37 35 165 277 165 312 0 9 -8 21 -17 26 -15 9 -15 19 -5 105 23
184 20 206 -49 347 -34 69 -67 132 -74 140 -38 44 -59 235 -35 334 10 44 -1
76 -27 76 -13 0 -14 9 -9 58 10 78 14 90 37 97 14 5 19 15 19 43 0 28 13 56
57 119 56 82 56 82 59 166 3 86 45 247 64 247 6 0 10 -4 10 -10 0 -5 13 -10
29 -10 38 0 61 31 61 81 0 24 5 39 15 43 8 3 15 16 15 30 0 16 20 44 64 88 66
66 91 118 84 176 -4 40 -45 44 -53 5z"/>
<path d="M7055 18247 c-11 -8 -67 -19 -125 -27 -58 -7 -145 -18 -194 -24 -90
-11 -115 -25 -78 -45 19 -10 113 -4 272 19 41 6 116 15 165 19 122 12 176 -8
257 -93 42 -44 61 -57 69 -49 8 8 8 17 -1 33 -50 93 118 -77 237 -241 12 -17
25 -52 28 -77 9 -64 12 -72 30 -72 12 0 15 13 15 59 0 74 -10 100 -58 153 -21
24 -51 63 -67 86 -16 24 -57 69 -91 101 -73 66 -234 155 -269 149 -13 -3 -52
1 -87 8 -79 17 -79 17 -103 1z"/>
<path d="M5112 18189 c-309 -36 -416 -56 -524 -98 -290 -113 -459 -185 -556
-239 -59 -33 -190 -103 -292 -155 -102 -53 -203 -105 -225 -117 -150 -78 -437
-187 -625 -237 -28 -7 -35 -14 -34 -33 1 -13 -8 -32 -19 -40 -25 -20 -17 -36
29 -55 19 -8 34 -21 34 -30 0 -19 29 -32 39 -17 5 8 35 0 97 -28 78 -34 204
-74 298 -95 l30 -6 -43 -25 c-62 -35 -111 -75 -233 -189 -101 -93 -129 -135
-93 -135 9 0 55 38 103 83 48 46 114 105 147 132 63 50 186 115 220 115 44 0
66 12 63 34 -3 19 -8 21 -68 18 -37 -2 -95 4 -135 13 -112 26 -325 114 -325
133 0 4 53 15 118 25 330 48 412 58 692 78 85 6 159 15 164 19 5 5 6 16 3 24
-7 17 -7 17 -267 -9 -74 -8 -173 -17 -220 -20 -47 -3 -139 -14 -205 -25 -281
-43 -366 -53 -388 -42 -17 8 -19 11 -7 15 412 140 509 185 1225 563 74 39 416
181 545 225 113 40 481 89 664 89 116 0 139 7 116 35 -17 20 -130 18 -328 -6z"/>
<path d="M5723 18176 c3 -18 26 -86 51 -150 51 -131 63 -184 48 -212 -9 -18
-29 -19 -354 -22 -446 -4 -431 -2 -878 -154 -213 -74 -301 -94 -524 -123 -59
-8 -111 -17 -115 -21 -13 -14 277 5 375 25 55 11 207 57 337 101 365 124 365
124 787 125 l355 0 -3 -38 c-3 -28 1 -39 14 -44 26 -10 38 16 58 120 l18 94
-28 69 c-42 106 -123 264 -135 264 -8 0 -10 -12 -6 -34z"/>
<path d="M6644 18065 c-10 -26 7 -35 69 -36 34 0 87 -5 117 -10 30 -6 96 -16
145 -24 50 -7 91 -14 93 -14 1 -1 2 -19 2 -41 0 -30 -6 -45 -27 -64 l-26 -24
7 -125 6 -124 -31 -7 c-42 -8 -91 25 -84 57 4 16 -7 37 -40 77 -56 67 -78 107
-100 185 -19 66 -34 83 -51 59 -27 -35 26 -167 105 -262 42 -50 50 -66 41 -77
-16 -19 -8 -29 58 -74 103 -70 290 -151 348 -151 37 0 29 26 -13 44 l-38 16
64 -3 c38 -2 66 -8 69 -15 9 -29 142 7 142 38 0 17 -11 18 -117 19 -64 1 -120
5 -124 9 -4 4 7 41 24 82 21 53 33 103 39 169 5 52 11 97 14 100 7 7 54 -49
54 -64 0 -5 14 -37 30 -69 18 -35 30 -74 30 -97 0 -44 20 -67 81 -94 26 -12
43 -15 50 -8 13 13 1 41 -22 48 -31 10 -92 148 -82 185 5 19 -6 34 -99 136
-69 75 -120 104 -187 104 -20 1 -67 8 -106 16 -223 49 -430 67 -441 39z"/>
<path d="M8581 17998 c-55 -127 -91 -196 -114 -224 -30 -36 -34 -54 -12 -54
62 0 211 299 158 317 -8 3 -21 -13 -32 -39z"/>
<path d="M4793 17960 c-104 -53 -193 -114 -193 -130 0 -6 4 -10 9 -10 22 0
321 154 321 165 0 11 -20 25 -35 25 -2 0 -48 -23 -102 -50z"/>
<path d="M6473 17715 c-4 -11 12 -35 49 -73 56 -58 88 -100 88 -115 0 -4 -16
-7 -36 -5 -54 4 -53 -17 3 -45 32 -17 72 -53 122 -111 75 -88 111 -108 111
-63 0 14 -17 38 -43 63 -24 22 -55 67 -71 99 -34 73 -78 136 -135 198 -56 61
-79 74 -88 52z"/>
<path d="M5729 17673 c-5 -14 -12 -85 -15 -157 -3 -72 -12 -173 -21 -225 -8
-51 -13 -107 -10 -125 5 -34 2 -53 -39 -256 -22 -109 -27 -164 -28 -287 -1
-84 -3 -153 -5 -153 -3 0 -15 10 -28 22 l-23 22 -21 -21 c-27 -27 -18 -55 24
-74 30 -13 32 -18 37 -76 3 -34 9 -65 13 -70 10 -9 35 22 44 55 9 36 20 25 27
-25 23 -166 49 -315 61 -358 24 -83 75 -148 75 -97 1 27 34 -20 84 -118 41
-80 92 -235 130 -394 18 -76 41 -120 57 -110 13 8 109 -89 109 -109 0 -21 18
-31 33 -18 9 7 27 3 62 -14 28 -13 56 -25 63 -25 20 0 130 -48 172 -75 88 -55
221 -115 300 -135 88 -22 110 -33 91 -44 -6 -4 -11 -16 -11 -26 0 -14 9 -21
38 -25 62 -10 118 -44 172 -106 59 -68 111 -101 195 -124 33 -9 102 -30 153
-47 50 -16 98 -28 105 -25 20 7 -79 64 -161 92 -43 15 -97 34 -121 42 -30 11
-67 39 -120 93 -42 42 -95 87 -118 99 -24 12 -43 25 -43 30 0 18 -68 51 -171
84 -89 29 -229 90 -229 100 0 2 13 2 29 -1 16 -2 32 1 36 7 4 7 -22 24 -72 46
-43 20 -94 44 -114 55 -44 24 -65 25 -73 5 -4 -12 -20 -7 -85 26 -91 46 -105
70 -70 118 28 38 19 71 -19 71 -19 0 -32 9 -44 30 -19 33 -39 38 -59 14 -11
-14 -9 -25 20 -76 36 -65 35 -79 -3 -54 -14 9 -32 16 -40 16 -10 0 -17 15 -21
48 -4 26 -13 75 -21 110 -16 73 -16 75 -6 69 4 -3 8 7 9 21 1 15 5 42 9 61 6
32 5 34 -19 29 -24 -5 -28 1 -61 73 -20 42 -47 116 -61 164 -14 48 -27 91 -31
96 -7 12 -34 12 -34 -1 0 -25 -19 -6 -34 35 -10 24 -26 47 -36 50 -10 3 -21
18 -24 33 -16 80 -47 282 -60 390 -15 122 -25 152 -52 152 -10 0 -14 14 -14
49 0 59 46 339 59 355 4 6 14 36 21 66 7 30 21 74 32 98 20 49 22 70 8 92 -9
13 -11 13 -19 0 -18 -28 -23 -1 -12 69 6 38 11 107 12 153 0 46 3 113 7 149 4
37 6 72 4 78 -7 21 -32 11 -43 -16z"/>
<path d="M4986 17611 c-7 -10 26 -18 234 -56 80 -15 189 -37 242 -51 53 -13
111 -24 128 -24 27 0 31 3 28 22 -3 20 -17 25 -128 50 -265 60 -488 86 -504
59z"/>
<path d="M8792 17428 c-16 -16 -17 -514 -2 -554 10 -26 12 -26 28 -10 15 15
17 46 19 279 1 283 -5 325 -45 285z"/>
<path d="M4882 17379 c-86 -17 -319 -92 -387 -125 -38 -18 -123 -74 -189 -123
-69 -52 -182 -123 -270 -170 -170 -91 -248 -140 -254 -159 -4 -13 271 120 388
188 36 21 114 75 174 120 60 44 129 91 155 104 100 50 369 126 447 126 55 0
83 17 62 38 -13 13 -62 14 -126 1z"/>
<path d="M7265 17270 c-190 -28 -277 -59 -242 -89 10 -8 35 -5 98 14 46 13
135 31 197 38 62 8 116 17 119 20 12 13 -8 37 -29 36 -13 -1 -77 -9 -143 -19z"/>
<path d="M5120 17200 c-52 -10 -138 -25 -190 -34 -159 -26 -447 -130 -577
-208 -155 -93 -382 -325 -457 -467 -19 -36 -53 -90 -75 -120 -43 -57 -85 -139
-212 -415 -111 -240 -188 -375 -279 -496 -64 -84 -79 -111 -77 -135 2 -26 6
-30 32 -30 25 0 30 5 36 32 3 17 20 49 36 70 71 90 226 365 273 481 42 107
184 386 233 459 30 43 71 107 92 143 68 114 217 283 317 360 114 88 225 143
438 215 160 54 260 74 492 100 63 7 88 25 68 50 -15 18 -29 18 -150 -5z"/>
<path d="M6246 17158 c-8 -13 -40 -84 -71 -158 -30 -74 -67 -152 -81 -173 -18
-28 -30 -69 -44 -150 -10 -62 -32 -146 -49 -189 -32 -80 -40 -153 -21 -203 18
-48 35 -24 36 51 1 54 8 85 33 144 l32 75 -6 -263 c-5 -262 -5 -264 21 -342
26 -82 60 -138 75 -123 5 5 -3 38 -18 73 -27 65 -31 107 -25 245 1 33 1 148 0
255 -3 181 -4 195 -22 198 -16 3 -18 10 -12 55 4 28 16 74 26 101 33 90 117
293 144 346 14 28 26 58 26 66 0 22 -28 17 -44 -8z"/>
<path d="M3768 17075 c-18 -27 -28 -33 -45 -28 -18 4 -37 -9 -90 -59 -95 -89
-119 -104 -51 -31 39 41 56 67 52 77 -3 9 -12 16 -19 16 -7 0 -54 -47 -104
-105 -51 -57 -135 -140 -188 -184 -104 -87 -322 -232 -447 -296 -70 -36 -80
-44 -92 -80 -24 -71 -18 -72 64 -6 34 27 103 74 154 104 51 30 143 90 203 132
61 43 155 108 210 146 55 37 138 102 185 143 47 41 87 72 89 70 2 -1 -20 -33
-49 -69 -60 -76 -198 -197 -390 -346 -194 -149 -254 -213 -318 -338 -34 -67
-52 -113 -50 -130 4 -26 4 -25 19 9 44 99 115 141 280 167 130 20 401 25 419
7 12 -12 -34 -162 -95 -303 -19 -46 -34 -86 -31 -88 14 -14 101 156 145 282
17 50 36 100 42 112 6 11 9 25 5 31 -10 16 -192 35 -267 28 -116 -11 -332 -47
-368 -62 -19 -8 -36 -12 -39 -10 -12 12 149 161 313 289 182 143 298 251 413
385 78 91 116 148 107 161 -12 20 -35 11 -57 -24z"/>
<path d="M7355 17078 c-62 -10 -85 -22 -85 -43 0 -21 25 -24 78 -10 28 7 81
16 119 20 125 12 224 -44 289 -163 58 -106 96 -163 142 -215 23 -26 42 -56 42
-67 0 -21 37 -37 52 -22 5 5 8 25 6 43 -3 30 -6 34 -29 31 -22 -2 -32 10 -86
100 -34 57 -74 129 -89 161 -71 149 -211 201 -439 165z"/>
<path d="M6373 17024 c-18 -8 -16 -41 3 -48 9 -3 55 -6 102 -6 106 0 152 -19
168 -68 20 -64 54 -68 54 -6 0 25 -9 44 -34 72 -34 37 -35 37 -133 43 -54 4
-109 9 -123 12 -14 3 -31 3 -37 1z"/>
<path d="M5020 16964 c-50 -10 -247 -115 -335 -178 -212 -153 -316 -280 -415
-506 -39 -91 -87 -174 -175 -305 -66 -99 -131 -198 -145 -220 l-23 -40 27 25
c29 26 165 204 233 305 44 65 90 152 147 277 101 223 294 407 566 541 l125 62
130 -1 c90 0 153 -6 206 -19 82 -19 113 -16 107 12 -2 13 -20 22 -63 31 -62
13 -340 25 -385 16z"/>
<path d="M7492 16914 c2 -10 25 -23 59 -34 81 -25 113 -47 145 -101 47 -80 75
-51 35 36 -24 53 -46 71 -116 95 -73 25 -128 27 -123 4z"/>
<path d="M7150 16901 c-31 -10 -105 -43 -165 -74 -61 -32 -129 -62 -152 -67
-55 -14 -103 -53 -86 -71 16 -17 143 28 246 87 43 25 97 47 121 50 24 4 98 -1
165 -11 67 -9 128 -14 137 -11 19 7 74 -15 93 -37 7 -10 21 -17 30 -17 9 0 36
-16 59 -35 24 -19 54 -37 65 -41 12 -3 41 -22 64 -40 23 -19 46 -34 53 -34 6
0 20 -15 31 -34 31 -53 69 -59 69 -11 0 26 -34 64 -137 153 -63 54 -137 92
-178 92 -13 0 -27 5 -31 11 -17 27 -90 49 -169 49 -98 0 -125 7 -125 30 0 14
-22 33 -33 29 -1 0 -27 -8 -57 -18z"/>
<path d="M5220 16680 c-73 -10 -203 -46 -248 -69 -20 -11 -67 -47 -104 -80
-38 -33 -107 -80 -155 -105 -98 -51 -161 -102 -146 -117 7 -7 27 0 60 19 27
16 87 47 134 69 58 27 106 59 149 100 36 33 79 67 95 76 61 31 161 57 243 64
59 4 85 10 89 21 3 8 0 18 -8 23 -16 10 -29 10 -109 -1z"/>
<path d="M6900 16604 c0 -5 -34 -9 -75 -9 -56 0 -78 -4 -91 -17 -9 -9 -13 -21
-9 -28 11 -18 145 -7 159 13 12 16 14 15 206 -19 64 -11 101 -25 149 -54 67
-40 94 -42 89 -6 -4 30 -94 81 -181 101 -81 20 -247 32 -247 19z"/>
<path d="M8023 16534 c-10 -27 17 -44 73 -44 53 0 54 -1 54 -29 0 -33 58 -91
91 -91 30 0 79 28 79 46 0 8 -9 32 -20 54 -16 32 -28 41 -62 51 -24 6 -50 15
-59 19 -29 15 -149 11 -156 -6z"/>
<path d="M5038 16501 c-65 -17 -128 -56 -152 -93 -19 -30 0 -29 76 7 43 20
107 39 149 46 74 11 92 21 82 46 -7 18 -73 16 -155 -6z"/>
<path d="M6430 16483 c-27 -10 -39 -24 -33 -38 4 -12 24 -13 101 -8 95 6 96 6
158 -28 51 -27 66 -31 76 -21 19 19 -1 43 -62 75 -46 24 -63 27 -139 26 -47 0
-93 -3 -101 -6z"/>
<path d="M7372 16424 c2 -9 10 -21 18 -25 41 -23 190 -88 225 -99 22 -7 59
-23 81 -37 35 -20 43 -21 53 -9 18 22 3 43 -47 67 -26 11 -75 34 -109 50 -132
63 -228 86 -221 53z"/>
<path d="M7375 16320 c-8 -14 13 -47 76 -116 27 -30 49 -59 49 -64 0 -18 62
-80 80 -80 10 0 63 -22 117 -50 131 -66 286 -99 300 -64 7 18 -12 34 -42 34
-10 0 -53 17 -95 39 -76 39 -193 85 -241 95 -18 4 -59 42 -120 111 -91 102
-111 117 -124 95z"/>
<path d="M5164 16155 c-71 -69 -183 -178 -249 -243 -66 -65 -155 -142 -198
-172 -43 -29 -106 -83 -139 -119 -58 -64 -96 -121 -81 -121 5 0 55 41 113 91
58 49 134 110 170 133 79 52 550 514 550 539 0 40 -44 12 -166 -108z"/>
<path d="M4794 16162 c-164 -148 -273 -272 -238 -272 4 0 54 48 112 106 59 59
144 138 189 176 46 39 83 74 83 79 0 28 -49 -2 -146 -89z"/>
<path d="M8267 16092 c-38 -62 -56 -72 -152 -87 -79 -12 -85 -15 -85 -37 0
-20 3 -21 85 -14 67 5 95 12 128 32 66 41 113 108 102 144 -12 37 -41 22 -78
-38z"/>
<path d="M4364 15828 c-53 -68 -120 -147 -148 -177 l-51 -54 64 49 c75 58 230
207 256 247 14 22 15 30 5 42 -7 8 -16 15 -21 15 -4 0 -52 -55 -105 -122z"/>
<path d="M5327 15927 c-63 -29 -190 -139 -226 -196 -16 -25 -45 -80 -64 -121
-57 -120 -129 -222 -237 -335 -96 -99 -150 -181 -150 -227 0 -31 14 -19 48 41
36 61 71 102 171 195 72 66 144 172 203 296 57 120 81 152 161 220 50 42 89
66 133 80 59 20 81 40 68 61 -9 15 -56 9 -107 -14z"/>
<path d="M6228 15893 c-7 -13 -2 -164 7 -203 4 -19 20 -50 36 -68 16 -18 32
-44 35 -57 6 -24 34 -36 34 -14 0 6 -11 48 -25 93 -14 44 -33 119 -43 165 -15
75 -32 107 -44 84z"/>
<path d="M3799 15768 c-29 -35 -80 -90 -114 -123 -52 -51 -104 -130 -93 -140
5 -5 192 147 207 169 8 11 32 41 53 65 41 48 51 91 19 91 -10 0 -42 -28 -72
-62z"/>
<path d="M5655 15748 c-8 -13 -42 -63 -74 -113 -68 -103 -85 -120 -172 -178
-75 -50 -127 -118 -165 -221 -14 -39 -73 -162 -130 -273 -57 -112 -100 -203
-95 -203 26 0 163 223 237 389 74 163 106 206 202 271 69 46 94 70 147 145 85
118 111 171 95 190 -17 20 -26 19 -45 -7z"/>
<path d="M4615 15432 c-6 -4 -22 -23 -35 -42 -80 -117 -305 -354 -464 -488
-103 -87 -275 -207 -284 -198 -10 11 34 89 93 161 31 39 73 99 93 135 20 36
54 92 77 125 75 112 92 175 46 175 -14 0 -24 -13 -37 -47 -10 -25 -41 -81 -69
-124 -27 -43 -70 -110 -93 -149 -24 -39 -59 -89 -79 -112 -45 -54 -68 -101
-82 -167 -9 -43 -22 -65 -65 -111 -29 -32 -85 -100 -123 -152 -39 -51 -89
-115 -112 -143 -45 -54 -48 -66 -27 -85 12 -9 27 -5 78 24 35 19 84 43 108 51
40 14 218 55 241 55 17 0 9 -21 -30 -78 -44 -66 -97 -169 -135 -264 -48 -123
-56 -358 -14 -444 28 -58 33 -36 33 153 1 203 1 206 67 358 33 74 119 219 162
271 14 18 26 38 26 46 0 17 148 163 250 248 100 83 183 131 330 194 131 55
225 107 380 209 88 58 200 164 200 189 0 33 -35 19 -90 -38 -97 -99 -299 -224
-500 -309 -78 -33 -175 -84 -230 -120 -92 -62 -323 -262 -371 -323 -21 -27
-37 -34 -119 -51 -52 -11 -128 -28 -168 -37 -40 -10 -75 -15 -78 -11 -12 12
144 217 166 217 4 0 11 -19 15 -42 l7 -43 12 68 c14 77 14 77 156 176 121 83
188 140 318 266 126 122 347 361 376 406 26 42 6 76 -29 51z"/>
<path d="M3442 15382 c-61 -22 -69 -29 -56 -42 7 -7 42 -7 100 -1 109 11 180
1 285 -41 77 -30 78 -30 163 -18 104 15 230 69 224 97 -5 27 -35 27 -97 -1
-31 -14 -89 -30 -128 -36 -69 -11 -75 -10 -164 20 -120 42 -248 50 -327 22z"/>
<path d="M6697 15293 c-5 -9 -22 -86 -31 -141 -7 -40 13 -52 49 -28 13 9 33
16 43 16 11 0 25 7 32 15 21 26 37 17 44 -26 8 -47 22 -79 36 -79 13 0 13 146
0 171 -11 20 -40 25 -68 10 -9 -4 -30 -11 -45 -15 -28 -7 -28 -6 -25 36 2 33
-1 43 -14 46 -9 2 -18 -1 -21 -5z"/>
<path d="M3495 15199 c-129 -73 -242 -121 -474 -201 -203 -70 -373 -118 -421
-118 -14 0 -49 -11 -77 -25 -71 -33 -319 -194 -418 -271 -94 -73 -439 -428
-497 -511 -23 -32 -60 -83 -83 -113 -23 -30 -77 -113 -120 -184 -44 -71 -105
-159 -137 -195 -64 -72 -162 -252 -254 -466 -77 -181 -128 -276 -215 -405 -79
-116 -117 -193 -189 -385 -20 -55 -58 -139 -83 -186 -51 -97 -76 -192 -58
-221 6 -10 11 -26 11 -36 0 -29 97 -213 131 -248 l29 -30 -16 -70 c-9 -38 -39
-147 -66 -243 -40 -141 -48 -179 -39 -198 12 -26 26 -29 38 -10 11 16 89 285
109 372 49 220 201 680 287 870 120 262 150 344 151 415 1 59 -1 65 -19 65
-17 0 -22 -10 -31 -65 -14 -88 -38 -156 -96 -280 -107 -226 -138 -303 -213
-530 -43 -129 -79 -241 -81 -248 -7 -24 -24 -2 -72 95 -26 52 -57 105 -69 117
-19 20 -21 27 -12 65 5 23 27 78 49 121 22 44 62 136 90 205 77 194 131 301
204 410 71 106 161 275 195 366 27 71 165 353 192 390 11 16 29 29 40 29 11 0
22 8 25 18 3 9 12 28 19 42 8 14 21 39 29 55 32 68 173 287 254 395 100 134
402 454 511 542 41 34 137 101 214 150 168 107 173 110 217 119 71 14 284 79
502 153 161 56 271 100 395 163 161 80 191 101 177 124 -11 18 -40 8 -129 -42z"/>
<path d="M5363 14968 c-93 -112 -172 -209 -177 -215 -16 -27 17 -11 61 30 80
73 323 351 323 369 0 50 -44 10 -207 -184z"/>
<path d="M8413 14883 c-5 -12 4 -24 28 -42 94 -70 162 -180 226 -366 l38 -110
2 -200 c1 -132 -3 -238 -13 -312 -11 -85 -12 -128 -4 -176 8 -53 48 -187 75
-249 7 -17 4 -16 -36 1 -60 27 -95 64 -130 138 -46 97 -91 78 -50 -21 11 -28
21 -58 21 -66 0 -8 -14 -50 -31 -92 -31 -77 -31 -77 -48 -56 -11 13 -24 19
-34 15 -13 -5 -15 -18 -10 -79 3 -40 10 -81 15 -91 13 -26 51 -18 60 13 32
110 71 227 79 234 5 6 16 3 26 -7 10 -8 41 -25 68 -37 28 -11 64 -37 82 -58
43 -49 60 -34 31 28 -12 25 -27 79 -34 120 -6 41 -20 117 -29 169 -14 77 -15
111 -6 200 5 58 13 192 16 296 5 181 4 194 -20 285 -31 117 -139 339 -196 404
-60 68 -113 93 -126 59z"/>
<path d="M5982 14828 c-97 -143 -121 -194 -131 -277 -10 -96 -31 -134 -119
-213 -195 -179 -299 -303 -317 -380 -12 -48 18 -33 43 22 35 75 122 177 221
259 168 137 222 213 236 332 6 59 64 175 119 240 30 35 29 53 -1 57 -15 2 -29
-9 -51 -40z"/>
<path d="M6496 14814 c-3 -9 -6 -38 -6 -66 0 -38 -12 -77 -51 -167 -88 -198
-114 -243 -195 -335 -148 -166 -193 -221 -205 -246 -56 -123 -145 -246 -295
-407 -55 -59 -129 -142 -165 -183 -161 -189 -568 -595 -724 -723 -88 -72 -195
-162 -238 -199 -43 -37 -112 -84 -153 -105 -77 -40 -88 -51 -74 -74 7 -11 17
-11 48 -3 36 10 39 9 34 -8 -12 -47 53 -28 343 97 99 42 185 82 190 87 23 24
-72 -4 -241 -70 -207 -81 -250 -95 -266 -90 -6 2 9 16 33 30 24 15 78 57 119
95 41 38 155 136 252 217 98 81 208 182 245 224 38 42 140 151 229 242 88 91
200 212 250 270 49 58 125 143 169 190 110 117 154 172 235 291 43 64 70 113
70 130 0 21 28 54 135 157 117 113 140 140 166 199 17 37 52 111 77 163 43 90
46 101 50 198 4 86 2 102 -11 102 -8 0 -18 -7 -21 -16z"/>
<path d="M5394 14694 c-123 -83 -119 -80 -272 -244 -141 -151 -211 -252 -312
-451 -73 -143 -147 -244 -344 -471 -54 -62 -120 -146 -148 -185 -27 -40 -61
-88 -77 -105 -40 -46 -64 -95 -50 -104 20 -12 84 53 164 169 44 63 103 142
132 174 50 56 51 57 33 18 -39 -77 -20 -86 43 -21 32 34 55 48 102 61 107 29
146 47 235 106 119 79 209 177 243 262 30 76 33 102 13 110 -19 8 -27 -3 -69
-95 -38 -84 -86 -138 -189 -213 -82 -61 -137 -88 -223 -109 -38 -10 -80 -24
-92 -32 -41 -26 -36 -15 24 54 101 114 167 211 243 357 103 198 160 281 294
432 122 137 193 198 301 259 72 39 90 57 81 79 -9 25 -29 18 -132 -51z"/>
<path d="M5696 14688 c-7 -13 -16 -34 -19 -48 -13 -53 -68 -120 -161 -194 -91
-72 -116 -106 -80 -106 21 0 158 95 206 142 61 61 118 188 97 215 -16 19 -26
16 -43 -9z"/>
<path d="M8087 14646 c-3 -8 8 -56 24 -107 34 -109 69 -272 69 -321 0 -19 -17
-104 -39 -189 -21 -85 -41 -174 -45 -199 l-6 -45 26 54 c42 90 105 292 110
356 5 50 -2 92 -41 245 -26 102 -51 193 -56 202 -12 22 -35 23 -42 4z"/>
<path d="M4968 14502 c-106 -85 -199 -189 -257 -286 -73 -123 -218 -339 -288
-426 -86 -108 -257 -279 -333 -332 -127 -89 -398 -216 -551 -257 l-74 -20 75
69 c41 38 127 106 190 151 139 99 265 219 331 316 48 70 50 72 171 131 136 66
208 122 231 180 9 21 19 86 23 145 6 95 5 107 -10 113 -29 11 -38 -11 -48
-117 -11 -123 -29 -164 -95 -212 -49 -35 -165 -99 -170 -93 -2 1 3 22 11 45
28 76 20 157 -12 137 -6 -3 -17 -40 -27 -81 -11 -49 -28 -93 -51 -126 -19 -28
-34 -53 -34 -56 0 -2 -17 -30 -39 -61 -52 -77 -176 -193 -292 -274 -53 -37
-121 -89 -150 -116 -56 -51 -122 -136 -113 -144 2 -3 -18 -14 -47 -25 -52 -19
-63 -40 -19 -35 56 7 251 62 333 95 l87 35 28 -36 c15 -21 49 -66 75 -102 55
-77 152 -183 143 -157 -23 70 -35 145 -34 222 0 50 -5 103 -11 118 -16 41 -15
43 32 70 92 54 174 125 295 257 141 152 265 319 380 515 90 152 193 266 301
335 43 27 71 52 71 63 0 34 -47 18 -122 -41z"/>
<path d="M6072 14473 c-122 -192 -340 -634 -329 -666 2 -7 41 62 87 153 107
215 189 363 261 476 33 50 59 96 59 102 0 32 -33 4 -78 -65z"/>
<path d="M2753 14523 c-4 -9 5 -51 20 -92 41 -118 64 -240 81 -441 9 -102 19
-215 23 -252 3 -37 12 -76 19 -85 13 -17 15 -17 30 2 11 14 14 32 10 60 -3 22
-15 139 -26 260 -24 253 -64 454 -107 538 -15 30 -40 36 -50 10z"/>
<path d="M7745 14531 c-3 -6 4 -58 16 -117 20 -99 21 -117 10 -249 -17 -218
-14 -267 25 -467 32 -163 36 -202 37 -352 2 -161 2 -167 16 -125 25 75 20 320
-8 459 -39 192 -41 232 -29 448 15 259 -2 412 -47 412 -7 0 -16 -4 -20 -9z"/>
<path d="M4485 14503 c-68 -9 -146 -38 -258 -96 -174 -89 -225 -152 -273 -336
-8 -31 -14 -71 -14 -91 1 -33 2 -31 25 28 40 103 105 219 145 259 40 41 184
121 263 147 27 9 78 21 114 26 75 10 104 29 83 54 -12 16 -25 17 -85 9z"/>
<path d="M6855 14416 c-8 -20 -22 -52 -30 -72 -27 -66 -153 -258 -288 -441
-74 -99 -154 -213 -178 -252 -92 -150 -237 -354 -314 -442 -82 -94 -282 -285
-393 -377 -104 -86 -204 -148 -354 -223 -142 -71 -268 -151 -268 -170 0 -6 39
10 88 35 48 25 140 70 204 100 195 91 304 169 532 381 222 206 361 377 518
635 35 58 106 163 158 234 52 71 122 165 155 210 79 108 226 366 223 391 -5
36 -37 30 -53 -9z"/>
<path d="M2640 14400 c-7 -14 -6 -38 5 -87 8 -37 19 -114 25 -171 9 -81 21
-127 56 -220 25 -64 56 -157 68 -207 28 -110 49 -122 54 -29 2 53 -4 80 -53
212 -43 118 -58 173 -66 245 -5 50 -17 128 -25 172 -21 103 -40 129 -64 85z"/>
<path d="M7204 14392 c-7 -4 -17 -25 -23 -47 -6 -22 -31 -76 -56 -119 -32 -57
-42 -83 -34 -90 8 -8 24 3 55 38 70 77 113 171 93 207 -11 21 -18 23 -35 11z"/>
<path d="M8841 14256 c-9 -11 -8 -23 4 -53 18 -41 65 -249 65 -285 0 -12 -7
-29 -16 -39 -14 -16 -14 -21 5 -62 18 -39 19 -53 11 -99 -13 -68 -31 -277 -37
-438 l-5 -126 87 -424 c155 -761 174 -885 205 -1299 11 -141 24 -290 29 -331
5 -41 15 -133 21 -205 6 -71 15 -164 21 -205 5 -41 11 -127 13 -191 2 -82 8
-122 19 -140 29 -45 54 -264 67 -569 5 -129 16 -320 24 -425 8 -104 22 -307
31 -450 9 -143 23 -334 31 -425 8 -91 19 -232 24 -315 23 -351 64 -541 170
-788 51 -118 58 -141 47 -157 -10 -17 -5 -33 35 -113 56 -108 78 -187 78 -277
0 -82 -14 -109 -70 -137 -43 -22 -114 -30 -136 -15 -5 4 -16 42 -22 86 -7 43
-23 110 -37 150 -21 62 -33 80 -97 141 -44 42 -102 85 -145 108 -39 21 -75 46
-78 56 -10 33 -60 41 -254 41 -195 0 -273 -11 -380 -50 -301 -113 -542 -307
-762 -615 -26 -36 -79 -104 -119 -152 -76 -92 -121 -150 -192 -250 -41 -58
-104 -138 -193 -242 -22 -26 -72 -87 -112 -137 -349 -433 -433 -531 -585 -679
-245 -239 -403 -366 -568 -460 -80 -45 -174 -100 -210 -122 -141 -87 -164 -96
-274 -102 -145 -8 -510 -3 -586 9 -36 5 -122 14 -192 20 -272 21 -710 97 -866
151 -30 10 -65 19 -77 19 -24 0 -38 -20 -26 -38 31 -51 595 -162 971 -192 74
-6 158 -15 185 -20 28 -5 153 -12 280 -16 188 -6 232 -10 241 -22 8 -11 21
-13 45 -10 60 10 191 66 279 119 47 29 132 79 190 112 58 33 134 77 170 97 36
21 105 74 154 117 49 43 121 105 160 138 128 107 328 317 492 515 88 107 173
213 189 235 16 22 45 58 65 81 19 22 69 82 110 133 41 51 99 120 128 154 29
34 69 87 89 117 44 67 122 168 181 235 25 28 71 88 104 133 163 230 339 400
527 511 79 47 250 117 329 135 93 21 334 23 351 2 6 -7 33 -16 59 -20 84 -11
201 -78 280 -159 92 -96 110 -149 122 -365 4 -84 5 -165 0 -180 -11 -38 -42
-102 -50 -102 -3 0 -55 20 -116 45 -124 51 -161 54 -330 30 -108 -15 -216 -50
-276 -90 -48 -32 -251 -207 -346 -299 -135 -130 -283 -310 -388 -471 -32 -49
-74 -110 -92 -135 -78 -102 -206 -409 -287 -690 -21 -70 -45 -187 -55 -266
-11 -78 -24 -162 -29 -187 -6 -24 -11 -89 -12 -144 -2 -114 16 -163 58 -163
27 0 30 21 9 72 -16 38 -14 112 9 253 8 50 21 138 29 196 17 118 66 298 128
464 22 61 51 141 64 179 28 80 76 169 137 252 24 32 56 82 72 109 102 175 334
437 564 638 205 179 293 218 521 233 95 7 96 7 200 -35 58 -24 109 -47 115
-52 18 -18 50 -8 72 24 54 78 67 118 65 205 l-1 82 47 0 c102 0 190 46 216
111 33 81 17 232 -36 349 -16 36 -27 74 -24 85 5 20 -30 117 -104 284 -47 109
-113 333 -129 441 -6 41 -20 183 -31 315 -11 132 -22 251 -25 265 -3 14 -12
122 -20 240 -8 118 -17 242 -21 275 l-6 60 159 1 c87 1 195 8 241 16 59 11 85
12 90 4 4 -6 17 -47 29 -91 107 -389 158 -507 211 -488 19 7 15 29 -17 86 -26
45 -59 147 -142 437 -11 36 -17 70 -15 76 2 6 43 23 91 38 106 33 205 86 262
141 42 40 56 75 31 75 -7 0 -40 -18 -73 -41 -93 -62 -160 -94 -285 -133 -147
-46 -218 -57 -416 -65 l-162 -6 -6 95 c-4 52 -11 140 -17 195 -5 55 -16 242
-24 415 -14 299 -32 508 -56 630 -29 151 -90 713 -119 1105 -6 83 -18 195 -25
250 -8 55 -19 145 -25 200 -10 94 -94 550 -176 945 -41 201 -52 346 -36 463 7
45 15 129 19 186 5 58 13 106 18 107 6 2 24 -16 40 -38 96 -134 139 -199 165
-250 46 -91 119 -209 159 -258 99 -120 138 -199 211 -425 64 -196 93 -296 141
-490 22 -88 51 -196 65 -240 19 -59 24 -92 19 -125 -4 -32 2 -78 23 -165 16
-66 37 -174 46 -240 30 -216 38 -258 76 -395 47 -166 60 -229 60 -281 0 -22
38 -196 85 -387 50 -202 83 -357 80 -370 -7 -27 132 -456 171 -529 13 -25 24
-56 24 -69 0 -22 23 -54 39 -54 5 0 14 7 21 15 11 13 9 26 -13 73 -14 31 -33
80 -42 107 -8 28 -32 97 -51 155 -19 58 -48 150 -64 205 -16 55 -38 125 -48
155 -11 30 -23 72 -27 93 -6 31 -4 37 10 37 23 0 19 19 -38 203 -26 81 -58
200 -71 265 -14 64 -35 162 -48 216 -17 76 -20 100 -10 104 18 6 15 39 -8 100
-11 29 -25 88 -30 130 -6 42 -33 196 -61 342 -27 146 -54 285 -58 310 -4 25
-25 104 -45 175 -21 72 -54 195 -75 275 -121 463 -195 662 -295 793 -93 121
-111 148 -129 198 -10 25 -31 66 -47 90 -53 79 -144 204 -196 270 -67 84 -70
91 -78 177 -9 87 -50 305 -66 347 -12 31 -38 65 -50 65 -4 0 -13 -6 -19 -14z"/>
<path d="M8357 14253 c-4 -3 -7 -34 -7 -69 0 -81 -33 -275 -71 -423 -49 -186
-56 -218 -79 -371 -17 -112 -19 -151 -11 -173 14 -37 35 -30 39 14 7 90 57
357 87 469 66 246 101 486 79 544 -6 16 -26 21 -37 9z"/>
<path d="M6472 14194 c-124 -209 -221 -325 -446 -533 -240 -221 -304 -276
-449 -380 -141 -103 -219 -171 -200 -178 7 -2 98 57 203 133 282 203 674 572
821 771 64 86 129 195 129 215 0 33 -30 18 -58 -28z"/>
<path d="M7276 14198 c-3 -13 -14 -84 -26 -158 -12 -74 -24 -145 -27 -157 -4
-17 -1 -23 11 -23 10 0 22 21 34 63 26 83 55 253 47 277 -9 27 -34 25 -39 -2z"/>
<path d="M8529 14138 c-30 -109 -5 -341 50 -460 18 -40 19 -41 20 -15 1 16
-11 79 -25 140 -25 108 -28 200 -12 346 5 43 -20 34 -33 -11z"/>
<path d="M5260 14030 c-22 -44 -56 -123 -74 -174 -19 -51 -44 -113 -56 -137
-32 -62 -118 -165 -197 -236 -79 -70 -116 -106 -160 -155 -27 -30 -46 -39
-115 -57 -90 -23 -192 -70 -288 -132 -45 -29 -66 -50 -80 -82 -25 -54 -25 -84
0 -97 22 -12 29 -9 120 46 33 20 96 44 155 60 106 27 135 28 344 4 52 -5 103
-5 135 1 59 11 106 28 106 39 0 5 -55 7 -122 7 -68 -1 -168 5 -222 13 -94 13
-105 13 -200 -7 -85 -17 -146 -37 -245 -80 -11 -5 -11 -2 -2 16 28 52 197 139
320 166 32 7 33 6 27 -18 -3 -14 -9 -33 -13 -44 -4 -10 13 7 38 37 39 48 62
64 183 125 218 111 333 204 534 433 62 71 70 86 52 97 -18 11 -50 -16 -123
-108 -87 -108 -152 -171 -262 -253 -71 -53 -211 -134 -230 -134 -4 0 51 57
122 128 111 108 136 138 167 202 27 57 129 333 149 404 1 5 -3 10 -10 13 -7 3
-29 -29 -53 -77z"/>
<path d="M2591 13917 c-9 -11 0 -31 43 -96 55 -83 139 -278 170 -395 17 -68
32 -88 47 -66 19 29 2 108 -55 252 -38 94 -78 174 -115 228 -59 89 -71 99 -90
77z"/>
<path d="M6915 13878 c-117 -167 -364 -651 -446 -873 -18 -49 -61 -163 -96
-253 -68 -175 -107 -317 -118 -424 -7 -66 -8 -68 -35 -68 -34 0 -41 -9 -130
-149 -60 -96 -188 -257 -196 -248 -2 1 8 41 21 87 31 108 90 407 106 530 22
183 90 371 201 561 33 55 137 197 269 364 39 50 95 131 124 180 29 50 79 126
109 170 31 44 56 84 56 90 0 17 -21 34 -36 28 -18 -7 -89 -107 -157 -224 -60
-102 -123 -192 -192 -274 -259 -306 -397 -592 -435 -900 -15 -122 -75 -411
-106 -515 -37 -122 -39 -139 -21 -153 14 -11 8 -25 -50 -122 -51 -84 -67 -119
-67 -150 -1 -30 3 -40 17 -43 12 -3 22 7 33 35 43 102 154 271 240 365 35 38
93 117 130 178 36 60 78 119 92 132 l25 23 -6 -170 c-4 -93 -11 -204 -17 -245
-15 -101 -63 -281 -111 -410 -21 -58 -48 -145 -60 -195 -12 -49 -34 -120 -50
-156 -31 -69 -30 -99 2 -99 14 0 33 28 74 113 62 129 93 176 242 379 59 81
133 187 164 235 31 48 100 158 154 243 54 85 127 196 162 247 35 50 88 142
119 205 49 99 54 108 48 68 -3 -25 -19 -97 -34 -160 -16 -63 -36 -153 -44
-199 -9 -47 -37 -155 -62 -240 -25 -86 -55 -187 -65 -224 -11 -38 -44 -120
-74 -183 -57 -118 -65 -148 -42 -157 23 -9 33 4 90 120 67 133 129 332 192
618 24 110 60 270 79 355 19 85 48 254 65 375 17 121 41 270 53 332 22 116 20
147 -9 141 -14 -2 -21 -21 -30 -83 -7 -44 -22 -136 -34 -205 -12 -69 -26 -160
-32 -202 -11 -83 -21 -97 -30 -48 -12 58 -60 28 -51 -31 17 -101 -61 -268
-282 -601 -92 -139 -202 -306 -245 -370 -97 -148 -263 -371 -267 -359 -1 4 9
39 23 76 74 197 125 484 125 709 1 145 17 314 40 401 19 73 67 206 188 515 63
162 260 560 324 655 67 100 118 190 118 210 0 23 -37 18 -55 -7z"/>
<path d="M8026 13598 c-8 -13 -22 -62 -30 -110 -9 -48 -32 -127 -50 -175 -19
-48 -44 -122 -56 -163 -12 -41 -62 -156 -111 -255 -115 -235 -133 -285 -99
-285 5 0 38 60 73 133 35 72 82 163 104 200 58 95 236 639 218 666 -10 18 -34
12 -49 -11z"/>
<path d="M8415 13498 c-3 -7 -19 -60 -36 -118 -17 -58 -45 -137 -64 -176 -28
-62 -143 -254 -251 -421 -37 -57 -43 -90 -19 -99 9 -4 15 -19 15 -40 0 -18 25
-135 55 -258 30 -123 66 -275 80 -337 14 -63 48 -181 74 -264 105 -322 161
-504 181 -585 12 -47 37 -137 55 -200 43 -146 132 -489 178 -690 117 -500 139
-607 177 -825 23 -132 49 -276 58 -320 26 -124 12 -403 -43 -830 -30 -231 -15
-429 61 -805 29 -140 48 -196 71 -205 35 -13 37 13 10 122 -86 353 -114 649
-83 888 9 66 23 192 31 280 15 156 21 192 30 184 2 -3 29 -112 59 -244 186
-812 198 -859 277 -1100 55 -168 79 -215 109 -215 32 0 33 21 1 91 -73 161
-148 423 -252 874 -27 121 -76 335 -108 475 -86 375 -136 612 -171 820 -58
340 -253 1167 -355 1509 -19 65 -48 172 -65 238 -16 66 -45 165 -64 219 -114
328 -167 523 -266 981 -31 145 -55 232 -64 239 -14 9 -11 17 15 59 28 44 101
168 214 362 46 80 138 338 133 375 -3 25 -35 37 -43 16z"/>
<path d="M7616 13458 c-3 -7 -10 -49 -16 -93 -7 -44 -26 -118 -42 -165 -30
-84 -47 -124 -168 -390 -132 -287 -150 -346 -149 -465 l1 -60 14 55 c33 125
71 224 144 380 182 387 239 541 247 668 5 72 4 82 -11 82 -9 0 -18 -6 -20 -12z"/>
<path d="M5666 13174 c-121 -128 -226 -200 -400 -274 -114 -49 -149 -70 -113
-70 21 0 145 44 221 79 111 50 224 132 324 235 87 88 108 124 77 132 -5 2 -55
-44 -109 -102z"/>
<path d="M8034 13077 c-2 -7 -12 -46 -22 -87 -13 -52 -27 -84 -46 -105 -30
-32 -141 -218 -219 -370 -45 -86 -102 -160 -294 -379 -78 -89 -123 -128 -123
-108 0 6 32 58 71 117 51 76 69 111 64 125 -12 39 -42 21 -113 -68 -107 -134
-185 -210 -314 -306 -114 -84 -135 -110 -102 -123 23 -8 52 8 120 68 192 169
201 175 191 140 -6 -23 10 -51 29 -51 34 0 113 52 169 112 71 76 216 244 263
304 17 24 62 98 98 166 57 105 108 193 120 207 2 2 10 -2 19 -9 12 -10 18 -10
29 0 29 23 113 331 100 365 -7 18 -33 20 -40 2z"/>
<path d="M6714 12943 c-43 -102 -54 -138 -73 -239 -73 -389 -85 -427 -216
-698 -42 -87 -74 -160 -72 -163 8 -8 95 131 162 259 94 180 104 213 170 558
14 74 37 171 50 216 29 94 30 104 10 104 -8 0 -22 -17 -31 -37z"/>
<path d="M5049 12659 c-107 -62 -219 -122 -249 -134 -60 -25 -80 -55 -36 -55
35 0 62 13 218 107 76 46 172 100 213 120 51 26 75 43 75 55 0 10 -6 18 -13
18 -8 0 -101 -50 -208 -111z"/>
<path d="M3224 12725 c-3 -8 1 -80 10 -160 24 -218 22 -285 -15 -401 -30 -99
-37 -151 -59 -454 -6 -80 -20 -182 -30 -228 -24 -101 -26 -142 -6 -142 20 0
26 11 48 94 18 68 23 119 48 428 11 151 28 241 60 333 13 36 22 84 21 120 0
78 -28 403 -36 415 -9 15 -35 12 -41 -5z"/>
<path d="M2944 12585 c-8 -20 44 -564 62 -650 8 -38 17 -102 21 -142 7 -81 14
-99 37 -90 20 8 20 23 -4 197 -11 80 -31 265 -44 412 -13 146 -27 271 -31 277
-9 16 -35 13 -41 -4z"/>
<path d="M3031 11418 c-5 -13 -23 -81 -40 -153 -64 -263 -154 -556 -188 -608
-17 -27 -41 -46 -76 -62 l-52 -22 0 -49 c-1 -54 -80 -451 -122 -609 -14 -55
-52 -194 -83 -310 -55 -199 -140 -521 -182 -685 -10 -41 -31 -120 -47 -175
-16 -55 -40 -140 -54 -190 -35 -121 -43 -306 -17 -380 23 -65 140 -318 180
-389 33 -58 60 -73 60 -33 l1 22 19 -23 c10 -12 46 -107 81 -210 34 -103 83
-236 110 -297 26 -60 79 -182 118 -270 86 -198 98 -228 177 -445 35 -96 79
-200 97 -230 74 -123 117 -243 317 -870 34 -107 79 -235 100 -285 114 -276
139 -330 200 -440 37 -66 100 -183 140 -260 48 -91 88 -154 115 -180 22 -22
52 -58 65 -80 13 -22 56 -74 95 -115 39 -41 98 -106 130 -144 33 -39 90 -99
126 -135 37 -36 90 -97 119 -136 29 -38 72 -90 94 -116 81 -89 177 -212 196
-248 25 -51 52 -156 48 -195 -3 -29 -5 -27 -41 42 -26 49 -44 72 -56 72 -42 0
-31 -35 80 -244 225 -425 421 -808 446 -869 29 -73 45 -92 68 -83 34 13 -2
105 -148 380 -245 463 -315 601 -304 608 6 4 13 35 15 71 7 115 -43 253 -127
348 -92 106 -217 260 -268 332 -30 42 -60 77 -67 77 -6 0 -67 61 -135 135 -67
74 -126 135 -131 135 -15 0 -116 131 -144 188 -14 28 -33 52 -40 52 -8 0 -55
78 -105 172 -51 95 -98 185 -106 201 -37 69 -45 84 -61 117 -9 19 -28 58 -41
85 -104 210 -99 196 -313 865 -34 107 -93 275 -132 372 -57 145 -73 177 -90
180 -17 2 -24 15 -34 58 -27 114 -105 320 -225 591 -38 86 -69 160 -69 163 0
3 -22 54 -48 114 -27 59 -77 192 -112 295 -74 222 -111 292 -154 292 -28 1
-34 9 -93 125 -94 187 -107 232 -105 370 2 105 6 129 56 305 29 104 82 305
116 445 35 140 91 356 125 480 34 124 66 241 69 260 4 19 16 62 26 95 10 33
33 134 50 225 17 91 37 188 45 215 46 166 45 165 85 191 71 47 94 99 176 394
94 338 108 388 112 423 6 57 -29 91 -47 45z"/>
<path d="M504 11026 c-11 -29 15 -44 84 -51 312 -31 458 -54 735 -115 124 -27
234 -50 244 -50 10 0 72 -19 138 -41 109 -37 188 -57 515 -134 132 -32 368
-67 392 -59 21 6 24 27 5 42 -7 6 -64 18 -127 27 -63 9 -160 27 -215 40 -55
12 -167 37 -249 55 -82 18 -201 50 -265 72 -236 80 -823 192 -1178 223 -62 6
-74 5 -79 -9z"/>
<path d="M19596 10859 c-104 -25 -194 -87 -294 -199 -98 -111 -113 -123 -271
-215 -208 -121 -342 -176 -567 -235 -192 -50 -367 -60 -507 -28 -41 9 -51 8
-65 -5 -28 -29 1 -44 107 -57 205 -26 427 6 688 100 160 57 173 63 366 173
183 104 181 103 328 264 62 68 150 123 233 144 76 20 91 16 125 -27 27 -35 26
-71 -3 -127 -23 -43 -25 -60 -32 -246 -6 -166 -4 -217 11 -308 24 -150 16
-179 -60 -216 -46 -23 -56 -31 -53 -50 3 -24 16 -25 83 -8 87 22 118 114 91
271 -29 169 -17 408 28 561 21 70 20 97 -7 144 -23 41 -79 86 -106 84 -9 0
-52 -9 -95 -20z"/>
<path d="M506 10808 c-8 -37 -16 -245 -26 -678 -5 -223 -12 -418 -14 -435 -5
-30 -17 -197 -36 -480 -16 -242 -22 -831 -11 -947 6 -56 16 -184 21 -283 13
-220 44 -449 71 -518 10 -29 32 -77 48 -107 16 -30 41 -80 56 -110 37 -75 33
-69 100 -157 88 -115 149 -222 195 -342 23 -58 47 -115 54 -126 7 -11 18 -35
24 -54 7 -19 33 -66 58 -105 48 -75 229 -375 301 -498 43 -74 106 -175 232
-374 39 -61 71 -121 71 -133 0 -12 31 -68 68 -124 38 -56 97 -151 132 -212 99
-172 206 -332 234 -350 41 -27 114 -131 168 -240 28 -55 72 -132 99 -172 27
-40 49 -76 49 -80 0 -4 -13 -17 -29 -28 -76 -53 -199 -161 -323 -284 -75 -75
-176 -174 -224 -221 -85 -83 -166 -193 -216 -295 -65 -130 -209 -516 -262
-700 -56 -195 -70 -298 -63 -450 6 -112 17 -180 66 -415 23 -108 171 -575 202
-634 20 -38 37 -65 195 -301 44 -66 98 -149 118 -185 44 -75 73 -110 94 -110
40 0 -29 134 -192 375 -167 245 -169 249 -257 520 -145 450 -194 759 -156 980
37 212 206 688 324 919 67 129 110 179 338 401 200 194 261 249 374 337 l54
43 21 -29 c12 -16 61 -76 109 -134 63 -75 103 -135 141 -211 59 -117 140 -327
131 -341 -3 -5 0 -48 6 -97 6 -48 14 -164 19 -258 5 -108 14 -185 23 -210 9
-22 35 -101 58 -175 30 -93 74 -197 143 -335 57 -115 99 -210 98 -225 -1 -13
21 -69 48 -125 45 -88 53 -114 69 -222 17 -114 38 -173 61 -173 6 0 10 -8 10
-17 0 -31 47 -120 71 -137 30 -21 110 -21 152 0 41 21 77 54 77 71 0 18 -10
17 -72 -7 -55 -21 -104 -25 -125 -12 -18 11 -50 90 -58 142 -4 25 -17 56 -30
70 -17 18 -25 43 -29 90 -4 36 -18 94 -31 130 -13 36 -39 108 -58 160 -19 52
-77 178 -129 280 -58 114 -107 225 -128 290 -18 58 -41 119 -50 137 -24 42
-40 150 -40 276 0 57 -7 144 -15 193 -9 49 -13 106 -10 127 10 54 -85 331
-125 367 -16 14 -35 48 -45 77 -9 29 -31 70 -48 91 -18 22 -75 93 -128 158
-118 146 -199 265 -250 366 -61 122 -156 260 -191 279 -36 19 -340 498 -361
570 -8 25 -42 90 -77 145 -35 54 -94 150 -132 213 -38 62 -91 146 -117 185
-26 39 -66 103 -88 141 -22 39 -82 138 -133 220 -113 180 -198 343 -246 467
-43 114 -76 173 -174 313 -85 121 -212 359 -235 439 -8 28 -23 125 -34 216
-62 515 -66 1145 -11 1795 27 317 32 422 27 593 -3 115 1 251 9 352 17 209 18
322 2 338 -19 19 -37 14 -42 -10z"/>
<path d="M17710 10133 l-52 -48 -9 -105 c-13 -157 -31 -225 -94 -349 -58 -116
-64 -146 -30 -146 16 0 35 30 87 135 71 142 81 178 97 353 l8 88 48 43 c35 30
47 47 42 59 -11 29 -44 19 -97 -30z"/>
<path d="M17320 9319 c-85 -55 -166 -109 -180 -120 -14 -10 -47 -31 -75 -45
-27 -15 -81 -48 -120 -74 -164 -112 -751 -448 -975 -560 -36 -18 -84 -45 -106
-61 -23 -15 -104 -60 -180 -99 -76 -40 -150 -80 -164 -90 -14 -10 -74 -42
-135 -72 -117 -58 -317 -164 -480 -257 -100 -56 -345 -180 -525 -265 -52 -25
-140 -69 -195 -99 -305 -164 -406 -217 -413 -217 -4 0 -31 -18 -61 -40 -29
-22 -99 -65 -155 -96 -55 -31 -135 -77 -176 -102 -41 -25 -122 -69 -180 -97
-58 -29 -136 -71 -175 -95 -38 -24 -88 -51 -110 -60 -22 -10 -83 -43 -135 -75
-137 -83 -271 -157 -465 -256 -432 -220 -677 -349 -870 -459 -60 -35 -199
-112 -308 -172 -110 -60 -215 -119 -235 -132 -36 -22 -311 -162 -522 -266 -58
-29 -127 -69 -155 -90 -27 -21 -93 -58 -145 -83 -52 -25 -130 -68 -173 -96
-43 -28 -113 -69 -155 -91 -42 -21 -113 -62 -157 -89 -44 -28 -190 -106 -325
-173 -135 -68 -272 -140 -305 -159 -33 -20 -109 -62 -170 -94 -60 -31 -114
-61 -120 -65 -5 -4 -70 -40 -144 -80 -73 -39 -163 -91 -200 -114 -36 -24 -147
-87 -246 -141 -99 -54 -214 -117 -255 -140 -41 -23 -126 -68 -189 -100 -63
-31 -142 -74 -175 -94 -34 -21 -99 -60 -146 -86 -47 -27 -117 -70 -155 -96
-39 -25 -115 -69 -170 -97 -179 -91 -250 -136 -250 -157 0 -36 40 -28 137 28
51 30 130 73 175 96 45 22 119 65 165 95 46 29 115 71 153 92 39 20 83 46 98
57 16 11 106 61 200 112 95 51 217 117 272 147 55 30 165 90 245 133 80 43
170 95 200 115 30 20 96 58 145 85 50 26 115 63 145 80 30 18 105 59 165 90
61 32 127 69 148 82 21 13 149 81 285 150 136 69 285 149 332 178 47 28 129
75 182 103 54 28 124 69 155 91 32 22 102 60 155 84 53 25 116 59 140 75 24
16 63 39 88 52 25 12 54 30 65 40 11 10 56 33 100 50 44 18 85 35 90 40 6 4
91 51 190 103 245 128 435 234 524 291 41 26 81 50 90 54 9 3 57 28 106 55
272 150 740 396 850 447 89 41 364 194 466 258 36 23 92 53 125 68 32 15 83
42 112 61 56 35 246 133 259 133 5 0 8 -33 8 -72 l0 -72 -45 -8 c-87 -15 -143
-112 -122 -213 6 -27 13 -58 17 -67 6 -15 2 -18 -23 -18 -36 0 -75 -29 -92
-70 -21 -52 3 -169 56 -266 24 -45 44 -92 44 -105 0 -13 9 -37 20 -54 11 -16
20 -38 20 -49 0 -32 -46 -146 -99 -249 -57 -108 -65 -150 -29 -145 18 2 35 26
72 98 68 133 116 249 116 282 0 41 -32 131 -88 246 -77 156 -79 252 -6 252 55
0 121 -100 224 -340 54 -125 54 -125 77 -128 34 -5 33 21 -4 109 -19 46 -45
109 -57 139 -13 30 -41 84 -64 120 -50 78 -118 215 -128 253 -15 64 29 147 79
147 36 0 161 -121 247 -240 41 -57 102 -135 134 -174 70 -85 131 -205 151
-301 8 -38 18 -150 21 -248 8 -187 16 -224 48 -198 13 11 16 33 16 110 0 129
-17 313 -35 386 -20 79 -74 189 -119 245 -20 25 -75 97 -123 160 -47 63 -122
152 -166 197 l-80 81 -3 79 c-3 98 8 118 70 127 37 6 54 2 98 -20 75 -38 182
-137 225 -208 20 -34 71 -110 113 -171 139 -200 148 -219 181 -377 33 -153 55
-213 79 -213 24 0 23 38 -5 163 -14 64 -31 138 -36 164 -14 60 -186 341 -329
534 l-31 42 31 46 c19 28 42 49 58 53 23 5 32 0 67 -43 22 -26 85 -96 140
-154 151 -159 220 -251 272 -358 25 -53 54 -106 65 -118 11 -12 28 -66 42
-135 14 -63 30 -127 37 -144 7 -17 13 -79 13 -145 1 -107 -1 -119 -27 -173
-19 -39 -51 -77 -98 -120 -38 -34 -69 -69 -69 -78 0 -30 27 -28 74 3 56 37
109 96 144 163 26 48 27 57 27 200 0 121 -4 166 -21 230 -12 44 -29 115 -39
158 -13 59 -23 81 -40 93 -13 8 -26 27 -30 42 -10 43 -94 182 -149 247 -28 33
-94 105 -147 160 -53 55 -117 127 -143 160 -59 74 -67 79 -121 70 -34 -5 -52
-15 -79 -46 -20 -21 -36 -46 -36 -54 0 -20 -3 -19 -47 11 -50 34 -139 75 -183
83 l-35 7 55 28 c71 37 283 161 337 198 23 15 44 28 46 28 3 0 56 28 119 63
224 126 394 215 463 244 117 50 466 232 755 393 47 27 137 74 200 105 63 32
127 66 141 76 14 10 73 42 130 70 57 28 129 68 159 87 30 20 116 68 190 108
231 121 373 199 419 228 25 16 83 50 130 76 106 58 267 154 386 230 50 32 122
74 161 93 39 20 91 52 115 73 24 20 94 68 154 108 79 51 110 77 110 91 0 41
-41 25 -195 -76z"/>
<path d="M10216 8361 c-10 -15 3 -37 37 -62 62 -45 183 -149 660 -562 56 -49
158 -137 227 -195 68 -59 198 -177 289 -262 90 -85 208 -194 262 -241 53 -47
147 -132 208 -189 60 -56 123 -112 139 -124 16 -11 64 -47 106 -80 63 -49 79
-56 91 -46 27 22 16 39 -66 102 -91 70 -255 210 -280 238 -8 9 -78 73 -155
141 -76 68 -186 170 -244 225 -111 107 -215 199 -370 329 -52 44 -158 136
-235 206 -77 69 -170 150 -206 180 -36 30 -122 101 -190 159 -210 179 -256
209 -273 181z"/>
<path d="M9756 6521 c-13 -21 9 -39 90 -76 47 -21 156 -78 242 -128 149 -85
376 -199 507 -254 33 -13 110 -48 170 -77 131 -63 155 -70 181 -52 15 12 16
16 5 30 -7 9 -19 16 -25 16 -6 0 -66 27 -133 59 -66 33 -132 62 -145 66 -54
16 -353 163 -502 247 -179 101 -338 178 -366 178 -10 0 -21 -4 -24 -9z"/>
<path d="M12165 6297 c-33 -18 -116 -69 -185 -113 -158 -102 -476 -290 -645
-381 -117 -63 -200 -109 -505 -278 -52 -29 -198 -105 -325 -169 -385 -193
-658 -336 -685 -359 -15 -12 -77 -49 -139 -82 -61 -33 -162 -89 -224 -125 -61
-36 -161 -92 -222 -125 -60 -32 -166 -92 -235 -133 -69 -41 -168 -98 -220
-127 -178 -97 -415 -231 -485 -275 -38 -24 -131 -74 -205 -113 -74 -38 -166
-89 -205 -112 -182 -110 -668 -396 -730 -430 -38 -21 -122 -71 -186 -112 -64
-40 -123 -73 -132 -73 -9 0 -26 18 -37 39 -24 49 -38 58 -56 39 -13 -13 -12
-21 5 -66 15 -38 17 -53 8 -60 -7 -5 -75 -42 -152 -82 -191 -101 -346 -188
-430 -242 -38 -25 -133 -80 -210 -123 -77 -42 -180 -101 -230 -130 -49 -29
-121 -69 -160 -90 -38 -21 -95 -55 -125 -75 -65 -44 -174 -100 -194 -100 -7 0
-24 -9 -37 -19 -22 -18 -23 -21 -8 -36 14 -14 22 -15 60 -5 51 14 129 56 214
116 58 41 118 75 370 211 174 94 268 148 370 213 99 63 517 294 551 304 20 6
26 -4 69 -105 55 -130 62 -112 -75 -186 -47 -25 -123 -69 -170 -98 -47 -29
-137 -80 -200 -114 -63 -35 -173 -99 -245 -143 -191 -117 -776 -460 -817 -479
-31 -13 -38 -46 -12 -56 20 -8 54 9 217 105 119 71 187 110 427 248 41 23 135
80 208 125 73 45 184 109 245 144 62 34 148 83 192 109 115 69 292 166 302
166 13 0 136 -248 130 -263 -3 -8 -47 -38 -99 -66 -51 -28 -132 -75 -181 -104
-112 -67 -300 -175 -502 -289 -193 -108 -323 -185 -430 -253 -44 -28 -150 -89
-235 -135 -193 -103 -240 -135 -240 -161 0 -34 28 -33 83 3 29 19 108 65 177
103 69 37 204 115 300 173 167 101 352 208 543 313 89 50 181 103 367 214 58
34 139 81 182 104 l76 42 56 -107 c31 -59 56 -108 56 -109 0 -1 -36 -24 -81
-51 -44 -27 -119 -73 -167 -103 -129 -79 -398 -234 -472 -271 -82 -41 -267
-153 -490 -295 -96 -62 -222 -140 -280 -175 -58 -34 -117 -71 -131 -81 -15
-10 -64 -32 -110 -49 -94 -35 -121 -55 -117 -84 2 -17 10 -21 38 -20 55 1 205
88 786 453 126 79 270 165 319 191 106 54 217 118 375 214 63 38 140 83 170
101 30 17 84 50 120 73 l65 41 33 -39 c56 -67 109 -44 57 24 -15 20 -25 41
-22 48 2 7 112 76 243 152 132 77 300 176 374 221 74 46 146 88 160 95 14 7
75 46 135 85 217 143 437 270 817 474 89 47 257 148 463 278 117 74 343 207
395 233 25 13 97 55 160 95 63 40 130 80 148 89 25 13 32 23 30 39 -5 34 -37
31 -98 -7 -71 -44 -217 -132 -378 -225 -140 -82 -272 -162 -494 -300 -81 -50
-201 -120 -265 -155 -213 -114 -417 -227 -478 -264 -33 -20 -78 -47 -100 -60
-22 -13 -110 -69 -195 -124 -85 -54 -177 -111 -205 -125 -27 -14 -68 -38 -90
-53 -49 -34 -118 -75 -250 -150 -55 -31 -170 -98 -255 -148 -85 -51 -157 -89
-162 -84 -11 11 -98 189 -98 201 0 6 48 39 108 74 59 36 145 91 192 122 47 32
139 86 205 120 103 52 327 180 640 365 44 26 112 64 150 85 39 21 95 55 125
75 30 21 100 62 155 92 379 208 811 463 819 483 2 7 -2 19 -10 25 -16 14 -80
-13 -180 -78 -50 -33 -308 -182 -582 -336 -41 -22 -135 -77 -210 -122 -315
-185 -794 -462 -882 -510 -136 -73 -236 -131 -304 -177 -96 -65 -260 -157
-268 -149 -11 12 -128 249 -128 260 0 6 42 33 93 60 50 27 148 81 217 119 190
106 316 176 415 230 143 79 356 203 400 233 22 15 141 84 265 155 124 70 299
171 390 225 91 53 212 123 270 155 104 58 297 171 460 270 47 29 119 71 160
95 41 23 122 70 180 103 175 99 429 259 433 272 9 21 -10 38 -34 32 -13 -4
-82 -43 -154 -88 -71 -44 -191 -116 -265 -159 -236 -135 -280 -161 -505 -295
-121 -73 -272 -160 -335 -195 -63 -35 -167 -95 -230 -133 -63 -38 -158 -93
-210 -122 -105 -58 -398 -228 -560 -325 -209 -125 -266 -158 -349 -200 -47
-23 -101 -52 -120 -65 -20 -12 -101 -58 -181 -102 -80 -44 -196 -108 -258
-142 -62 -35 -115 -61 -117 -59 -10 10 -96 210 -93 218 4 11 188 124 353 216
72 39 191 109 265 154 312 190 492 295 600 350 63 32 201 109 307 172 106 62
242 140 303 173 61 33 195 110 298 171 278 164 331 195 397 227 33 16 101 53
150 82 50 28 171 94 269 145 99 52 191 104 205 115 33 27 140 84 471 253 263
133 357 184 593 316 67 38 192 107 277 154 85 46 202 113 260 147 58 34 150
88 205 120 55 32 142 85 194 118 51 33 132 81 180 106 64 34 86 51 86 66 0 31
-33 29 -100 -8z"/>
<path d="M14222 5708 c-5 -7 -13 -39 -17 -71 -14 -113 -112 -271 -200 -322
-52 -31 -62 -65 -19 -65 100 0 259 214 278 373 8 76 -13 120 -42 85z"/>
<path d="M13830 5294 c-25 -8 -117 -32 -205 -55 -88 -22 -187 -48 -220 -58
-33 -11 -111 -31 -174 -46 -109 -26 -120 -27 -227 -17 -92 8 -139 19 -259 60
-81 28 -154 48 -161 45 -20 -7 -17 -41 4 -52 9 -5 80 -30 156 -56 119 -40 158
-49 260 -57 136 -11 117 -14 611 116 291 76 320 87 320 111 0 26 -43 30 -105
9z"/>
<path d="M2287 3714 c-18 -21 -68 -76 -112 -124 -134 -143 -211 -246 -264
-356 -58 -118 -187 -486 -195 -556 -6 -55 6 -98 29 -98 18 0 17 -2 40 102 18
83 66 171 210 393 39 61 82 128 95 150 13 22 45 69 71 105 25 36 83 129 129
208 86 151 93 179 50 202 -18 10 -25 6 -53 -26z m-78 -205 c-11 -23 -62 -103
-112 -178 -51 -75 -116 -174 -146 -221 -30 -46 -56 -79 -58 -74 -5 16 110 253
148 304 52 70 173 210 182 210 4 0 -2 -19 -14 -41z"/>
<path d="M4713 2133 c-18 -7 -17 -17 16 -102 16 -42 61 -177 100 -301 40 -123
78 -231 85 -240 8 -8 17 -34 21 -57 6 -40 5 -42 -27 -59 -18 -9 -103 -59 -188
-109 -85 -51 -240 -137 -345 -190 -192 -99 -329 -175 -426 -238 -58 -37 -491
-281 -652 -367 -70 -37 -97 -57 -95 -69 7 -37 50 -22 236 85 103 59 268 152
367 207 99 55 192 108 206 118 49 34 235 136 405 221 94 47 248 131 343 187
94 55 178 101 186 101 8 0 15 -8 15 -17 0 -26 48 -124 73 -151 13 -14 17 -26
12 -30 -24 -17 -139 -90 -197 -125 -267 -160 -395 -235 -468 -275 -112 -60
-265 -152 -370 -222 -47 -31 -166 -105 -265 -165 -244 -146 -297 -183 -293
-203 5 -27 46 -26 81 1 40 30 223 144 302 188 33 18 132 80 220 138 88 57 213
133 278 168 65 35 198 111 295 170 97 58 225 130 284 159 63 32 114 65 124 79
9 14 50 41 93 61 118 56 125 60 145 94 10 17 20 48 22 68 2 20 8 95 14 167 6
71 12 137 15 145 3 8 6 81 6 160 2 160 -9 220 -41 220 -28 0 -32 -13 -21 -79
9 -57 6 -129 -18 -456 -5 -71 -5 -124 0 -130 15 -15 10 -31 -16 -57 -29 -29
-103 -53 -138 -45 -36 10 -65 74 -92 203 -32 160 -68 275 -110 359 -19 39 -48
115 -65 170 -34 118 -73 210 -92 217 -7 3 -19 3 -25 1z"/>
<path d="M3713 1934 c-11 -29 38 -204 78 -280 22 -40 39 -78 39 -84 0 -5 -10
-10 -23 -10 -13 0 -48 -12 -78 -26 -50 -24 -296 -167 -450 -262 -36 -22 -151
-84 -255 -137 -104 -54 -198 -106 -209 -116 -18 -17 -18 -20 -3 -35 14 -15 28
-10 159 58 177 92 366 194 399 218 45 32 264 157 350 200 47 23 93 50 104 59
17 15 19 15 30 -3 61 -102 88 -121 169 -121 34 0 72 4 85 8 16 6 22 5 22 -6 0
-9 6 -17 13 -20 15 -5 15 -5 -68 -54 -38 -22 -115 -67 -170 -99 -56 -32 -138
-79 -183 -104 -45 -25 -148 -83 -230 -129 -81 -46 -199 -112 -263 -147 -183
-98 -274 -158 -274 -180 0 -37 40 -25 151 45 62 38 141 84 175 102 35 17 87
46 114 64 28 17 133 77 235 132 102 56 214 118 250 138 36 21 101 59 145 84
44 25 143 77 220 116 111 56 141 75 143 93 5 32 -31 29 -109 -8 -35 -16 -64
-28 -66 -26 -2 2 12 30 30 62 19 33 40 77 46 99 7 22 14 46 17 54 2 7 23 -24
45 -69 56 -111 72 -120 212 -120 120 0 141 7 208 67 38 35 39 37 39 104 0 103
-20 101 -49 -6 -7 -27 -24 -51 -52 -74 -41 -34 -42 -34 -140 -34 -65 0 -103 4
-114 13 -26 22 -93 152 -125 245 -50 142 -77 169 -101 98 -10 -30 -9 -48 6
-108 23 -92 12 -160 -40 -239 l-37 -54 -81 5 c-45 3 -93 10 -107 17 -32 15
-151 252 -175 351 -10 39 -24 85 -31 103 -14 34 -41 43 -51 16z"/>
<path d="M3050 1497 c-131 -83 -403 -241 -580 -337 -88 -48 -106 -61 -108 -84
-5 -38 20 -34 114 18 43 25 114 64 157 88 138 76 379 219 465 275 58 38 82 59
80 71 -6 32 -44 23 -128 -31z"/>
<path d="M2346 1004 c-9 -8 -16 -17 -16 -20 0 -16 82 -155 140 -239 108 -153
185 -273 222 -344 39 -75 58 -88 58 -39 -1 76 -43 152 -240 433 -39 55 -84
126 -100 157 -35 67 -43 73 -64 52z"/>
</g>
</svg>
